HIERARCHY
ROOT root
{
	OFFSET 0.000000 0.000000 0.000000
	CHANNELS 6 Xposition Yposition Zposition Zrotation Yrotation Xrotation
	JOINT lhip
	{
		OFFSET 0.058581 -0.082280 -0.017664
		CHANNELS 3 Zrotation Yrotation Xrotation
		JOINT lknee
		{
			OFFSET 0.043451 -0.386469 0.008037
			CHANNELS 3 Zrotation Yrotation Xrotation
			JOINT lankle
			{
				OFFSET -0.014790 -0.426874 -0.037428
				CHANNELS 3 Zrotation Yrotation Xrotation
				JOINT ltoe
				{
					OFFSET 0.041054 -0.060286 0.122042
					CHANNELS 3 Zrotation Yrotation Xrotation
					End Site
					{
						OFFSET 0.000000 0.000000 0.000000
					}
				}
			}
		}
	}
	JOINT rhip
	{
		OFFSET -0.060310 -0.090513 -0.013543
		CHANNELS 3 Zrotation Yrotation Xrotation
		JOINT rknee
		{
			OFFSET -0.043257 -0.383688 -0.004843
			CHANNELS 3 Zrotation Yrotation Xrotation
			JOINT rankle
			{
				OFFSET 0.019056 -0.420046 -0.034562
				CHANNELS 3 Zrotation Yrotation Xrotation
				JOINT rtoe
				{
					OFFSET -0.034840 -0.062106 0.130323
					CHANNELS 3 Zrotation Yrotation Xrotation
					End Site
					{
						OFFSET 0.000000 0.000000 0.000000
					}
				}
			}
		}
	}
	JOINT lowerback
	{
		OFFSET 0.004439 0.124404 -0.038385
		CHANNELS 3 Zrotation Yrotation Xrotation
		JOINT upperback
		{
			OFFSET 0.004488 0.137956 0.026820
			CHANNELS 3 Zrotation Yrotation Xrotation
			JOINT chest
			{
				OFFSET -0.002265 0.056032 0.002855
				CHANNELS 3 Zrotation Yrotation Xrotation
				JOINT lowerneck
				{
					OFFSET -0.013390 0.211636 -0.033468
					CHANNELS 3 Zrotation Yrotation Xrotation
					JOINT upperneck
					{
						OFFSET 0.010113 0.088937 0.050410
						CHANNELS 3 Zrotation Yrotation Xrotation
						End Site
						{
							OFFSET 0.000000 0.000000 0.000000
						}
					}
				}
				JOINT lclavicle
				{
					OFFSET 0.071702 0.114000 -0.018898
					CHANNELS 3 Zrotation Yrotation Xrotation
					JOINT lshoulder
					{
						OFFSET 0.122921 0.045205 -0.019046
						CHANNELS 3 Zrotation Yrotation Xrotation
						JOINT lelbow
						{
							OFFSET 0.255332 -0.015649 -0.022946
							CHANNELS 3 Zrotation Yrotation Xrotation
							JOINT lwrist
							{
								OFFSET 0.265709 0.012698 -0.007375
								CHANNELS 3 Zrotation Yrotation Xrotation
								End Site
								{
									OFFSET 0.000000 0.000000 0.000000
								}
							}
						}
					}
				}
				JOINT rclavicle
				{
					OFFSET -0.082954 0.112472 -0.023707
					CHANNELS 3 Zrotation Yrotation Xrotation
					JOINT rshoulder
					{
						OFFSET -0.113228 0.046853 -0.008472
						CHANNELS 3 Zrotation Yrotation Xrotation
						JOINT relbow
						{
							OFFSET -0.260127 -0.014369 -0.031269
							CHANNELS 3 Zrotation Yrotation Xrotation
							JOINT rwrist
							{
								OFFSET -0.269108 0.006794 -0.006027
								CHANNELS 3 Zrotation Yrotation Xrotation
								End Site
								{
									OFFSET 0.000000 0.000000 0.000000
								}
							}
						}
					}
				}
			}
		}
	}
}
MOTION
Frames: 8
Frame Time: 0.033333
-0.313750 -0.098713 0.990452 -176.303852 -2.152953 104.146369 4.099750 -4.214951 -31.302329 -7.041517 6.302249 53.845075 2.479022 11.907599 -20.680765 0.000000 -0.000000 0.000000 0.779095 8.791663 -38.341357 -2.230341 -1.367896 38.817030 -1.319776 -12.354493 -22.585143 0.000000 -0.000000 0.000000 0.269064 -1.802119 35.451517 0.987571 -0.032654 -5.504090 0.093920 -2.256300 4.444563 1.131923 2.281083 -5.274757 2.579569 -0.546612 -0.451333 -32.163422 -0.976836 4.259938 -52.007546 -1.749477 11.280176 7.135959 -30.100772 -1.266800 3.367437 -5.410528 -14.546962 28.339655 5.008833 2.275907 51.022558 0.446541 16.383559 -10.288766 30.538048 -2.484133 2.844890 4.972953 -12.730541 
-0.312532 -0.067461 0.992688 -177.136216 -2.369921 103.874339 4.102503 -4.390876 -34.903741 -6.479041 8.202937 48.499609 2.434521 12.618112 -21.399857 0.000000 -0.000000 0.000000 1.424763 8.241026 -35.693929 -2.089432 -0.661349 38.695802 -1.036184 -11.804591 -24.149318 0.000000 -0.000000 0.000000 0.052189 -0.814187 35.723309 0.906674 -0.463844 -5.767069 0.201220 -2.092600 4.650014 1.099070 2.589677 -5.304092 2.656549 -0.783443 -0.175755 -32.122568 -0.990797 4.016723 -52.187239 -1.388573 11.399640 7.083740 -29.725852 -1.331912 3.624922 -5.311155 -14.398451 28.043547 4.843592 2.197269 51.143809 0.408250 16.344486 -10.084769 30.350863 -2.186788 2.673488 5.140398 -12.589304 
-0.311752 -0.036123 0.993105 -178.118840 -2.396847 103.564048 4.006760 -4.309565 -37.719002 -5.734520 9.990677 41.643094 2.393001 13.606458 -21.301482 0.000000 -0.000000 0.000000 2.060594 7.656333 -33.097452 -1.868049 -0.104468 38.732781 -0.760838 -11.110687 -25.752937 0.000000 -0.000000 0.000000 -0.101550 0.038819 35.957009 0.746195 -0.800701 -6.006064 0.306511 -1.906405 4.856612 1.150765 2.989428 -5.401924 2.729489 -1.022864 0.100793 -32.052286 -0.900701 3.711861 -52.354452 -0.965742 11.489046 6.986205 -29.398329 -1.264147 3.551992 -5.272241 -13.923781 27.710209 4.690674 2.090512 51.357904 0.431906 16.237050 -9.900914 30.089556 -2.127712 2.499051 5.314407 -12.445690 
-0.311468 -0.004635 0.991670 -179.168472 -2.198800 103.339421 3.683910 -3.980378 -39.818200 -5.242518 11.073990 33.582947 2.358698 14.333215 -20.826569 0.000000 -0.000000 0.000000 2.619640 7.072567 -30.688695 -1.503223 0.200927 38.950319 -0.422054 -10.381584 -27.424930 0.000000 -0.000000 0.000000 -0.183838 0.715043 35.981684 0.585573 -1.031118 -6.111822 0.432431 -1.702868 5.038675 1.257391 3.513115 -5.575782 2.747925 -1.229146 0.329964 -31.995885 -0.783277 3.383386 -52.540762 -0.541339 11.591281 6.880069 -29.097041 -1.209990 3.459421 -5.243911 -13.322238 27.418071 4.558956 1.997024 51.499566 0.498635 16.067387 -9.683128 29.856689 -2.148958 2.347087 5.546821 -12.187474 
-0.311632 0.027480 0.988508 179.734990 -1.728665 103.140397 3.223316 -3.553850 -41.114977 -4.912698 11.575505 24.672061 2.182791 14.841169 -20.360964 0.000000 -0.000000 0.000000 3.269785 6.556437 -28.310296 -1.109023 0.246934 39.240197 -0.182247 -9.810050 -29.164178 0.000000 -0.000000 0.000000 -0.112499 1.238445 35.926324 0.411206 -1.153456 -6.151864 0.582202 -1.503893 5.153130 1.389980 4.127852 -5.735519 2.724865 -1.424370 0.663917 -31.921958 -0.749317 3.076140 -52.845766 -0.089536 11.672941 6.904327 -28.764966 -1.316937 3.273977 -5.248065 -12.646517 27.144902 4.524380 1.949510 51.648182 0.493680 15.838084 -9.533681 29.679373 -2.141534 2.281032 5.781436 -11.805037 
-0.312016 0.060751 0.983707 178.559965 -1.112561 102.902982 2.749441 -3.274873 -41.735831 -4.386653 12.335901 16.076912 1.848056 15.573446 -20.059759 0.000000 -0.000000 0.000000 4.106305 6.077114 -25.691387 -0.937311 0.356018 39.397875 -0.042787 -9.415092 -31.018792 0.000000 -0.000000 0.000000 0.044341 1.751651 35.771822 0.220410 -1.246905 -6.092799 0.716108 -1.321133 5.284504 1.543494 4.764591 -5.875242 2.695293 -1.653167 1.115383 -31.766459 -0.729393 2.777333 -53.237263 0.310546 11.691968 7.042637 -28.544704 -1.497584 2.885304 -5.307173 -11.994305 26.878902 4.511810 1.902569 51.956203 0.430141 15.615941 -9.571813 29.561884 -2.286636 2.226764 6.000858 -11.474945 
-0.312926 0.095494 0.977445 177.273738 -0.631504 102.640626 2.080077 -2.986942 -41.907541 -3.857493 13.371162 9.367236 1.634641 15.892290 -19.691377 0.000000 -0.000000 0.000000 4.630313 5.513219 -22.895056 -0.792541 0.642970 39.564216 0.099780 -8.871113 -32.933129 0.000000 -0.000000 0.000000 0.103166 2.377158 35.516027 0.008866 -1.353354 -5.950356 0.811680 -1.129524 5.396099 1.677908 5.277004 -5.866577 2.689090 -1.909216 1.612526 -31.500677 -0.760217 2.512722 -53.666564 0.580267 11.653089 7.186786 -28.332858 -1.570001 2.382144 -5.382763 -11.488151 26.632745 4.478745 1.932828 52.420844 0.315048 15.352537 -9.691120 29.425646 -2.527592 2.279533 6.169443 -11.233865 
-0.314654 0.132062 0.970155 175.879528 -0.176209 102.303054 1.709976 -3.002677 -41.710173 -3.581804 13.050624 5.855929 1.522878 15.628999 -19.244736 0.000000 -0.000000 0.000000 4.790512 4.967158 -19.917757 -0.398796 1.096422 39.771058 0.258095 -8.261001 -34.695397 0.000000 -0.000000 0.000000 0.135584 3.050857 35.292261 -0.154541 -1.369839 -5.795891 0.890004 -0.913778 5.478888 1.720907 5.730035 -5.750298 2.577846 -2.117784 2.147518 -31.303111 -0.780727 2.251148 -54.023250 0.771834 11.631907 7.343769 -28.242777 -1.574476 2.044155 -5.399975 -11.301041 26.520661 4.503622 1.952319 52.660169 0.015790 15.131671 -9.676203 29.360734 -2.457382 2.409991 6.280590 -11.023619 
